<?xml version="1.0" encoding="UTF-8"?>
<svg version="1.1" viewBox="0 0 2048 540" width="1280" height="1280" xmlns="http://www.w3.org/2000/svg">
<path transform="translate(270,35)" d="m0 0h14l10 5 7 9 9 11 7 15v2h75v-22l3-9 6-7 11-4h13l8 3 6 5 7 10 6 7 5 15v2l75 1v-13l2-13 6-10 9-6 4-1h13l9 4 7 7 4 7 5 4 5 9 3 9 16 8 10 9 7 10 7 8 3 12 1 10v69l-1 233-2 12-6 11-8 7-9 4-16 2-353-1-11-3-20-15-7-9-4-9-1-4-1-20v-292l2-15 7-13 7-6 10-5 19-1 1-23 5-10 7-6zm3 15m282 0-1 2 6-1v-1zm-284 1m142 0-1 2 6-1v-1zm-143 1m282 0m-283 1m142 0m-143 1m299 13-3 4-2 10v29l2 4 4-2 1-9v-29l-1-7zm-283 1-3 9 1 6 4-2v-13zm121 128-15 6-8 1-134 1-10 3-4 6-1 4-1 14v152l1 20 2 5 3 1h363l8-4 4-5 1-3v-193l-4-1h-101l-37-1-17-5-9-1-11 3h-9l-11-3zm202 240m-319 1-39 1-8 1-1 2 111 1h183l67-1 5-2 1-2z" fill="#050405"/>
<path transform="translate(234,94)" d="m0 0h15l1 14 3 10 4 6 7 6 5 2h13l10-5 7-8 3-7 1-6v-11l1-1h87l2 20 5 10 8 6 5 2h13l10-5 7-9 3-12v-11l1-1h87l1 16 4 11 3 3v2l4 2 5 3 4 1h11l10-4 7-7 4-9 1-18h14l7 3 6 7 1 5v66l-11 1-151 1-2 4-5 2-9 1h-10l-6-7-4-1-6 6h-15l-9-1-2-2v-3h-163v-67l2-7 4-5z" fill="#F1757D"/>
<path transform="translate(847,171)" d="m0 0 3 1 4 14 5 3 6 12 39 1 6 13v2l4 2 6 8 11 33 1 1 15-50 4-9h40l-1 9-1 2 4 2 5 5 1 4v9l-6 18-13 35-10 28-5 9-6 5-6 2h-26l-10-3-7-6-8-3-10-25-26-78-4-8-4 5-7 3-6 1-25 2-8 4-3 5 22 1 11 1 2 3 2 10 5 2 4 7v11l-6 7-5 2-22 2-8 3-3 5-1 4 39 1 2 3 2 9 6 5 2 5 1 9-2 7-5 4-8 2h-63l-8-2-8-7-10-3-1-5v-135l1-6z" fill="#540FE5"/>
<path transform="translate(1640,200)" d="m0 0 15 1 13 5 12 9 8 10 7 11 6 7 5 11 2 9v22l-6 16-7 11-9 9-14 7-9 2h-14l-14-3h-9l-3 7-2 36-3 9-6 5-12 2-10-2-11-7-8-4-1-2-1-9v-153l1-7h39l1 1 1 10 5-2 10-7 8-3zm3 49-9 3-5 4-4 6-2 7v10l1 3 4 2h10l8-5 6-9 1-4v-11l-3-5-1-1z" fill="#540FE5"/>
<path transform="translate(1783,200)" d="m0 0 14 1 11 4 10 7 9 9 8 11 7 10 4 10 2 14v13l-3 16-4 10-9 12-7 6-8 4-6 2-7 1h-10l-23-4-3 3-2 6-2 33-2 10-4 5-5 2h-16l-9-4-8-5-6-3-1-2-2-40v-103l1-24 1-2h39l1 1 1 11 7-6 11-6zm2 49-8 3-7 6-4 9-1 10 1 5 5 2h9l6-3 7-8 2-5v-12l-3-7z" fill="#5510E5"/>
<path transform="translate(415,221)" d="m0 0 9 1 8 6 9 12v2l3 1 7 11 4 5 8 3 20 4 9 5 8 11 5 6 2 5v7l-3 8-11 12-6 8-3 5-1 4 1 17v13l-3 9-7 6-9 2-9-2-18-8-4-1h-8l-14 5-10 5-10 1-9-3-9-7-8-6-4-8v-11l3-19 1-9-7-8-9-9-8-10-3-8 1-9 4-6 8-5 23-4 12-2 11-23 6-9 7-6z" fill="#050405"/>
<path transform="translate(1455,172)" d="m0 0h46l9 17v2l4 2 4 5 4 8 10 28 6 17 9 25 9 23 4 17-1 8-4 4-10 2-16-2-10-7-6-4-6-9-1-1-15-1-17 1-7 2-5 4-6 10-8 5-7 2h-10l-8-3-4-5-5-2-10-1-2-1 1-6 18-50 13-35 17-46zm31 75-5 13v2h12l-5-15z" fill="#520EE2"/>
<path transform="translate(1205,201)" d="m0 0h18l11 4 10 7 7 7 7 9 8 11 3 11 1 12v37l-1 17-2 7-6 5-9 2-12-1-6-3-9-6-6-3-1-3-1-17-1-44-2-4h-7l-7 3-6 7-2 5-1 9-1 35-2 14-5 6-5 2h-17l-15-10-6-3-2-3-2-20v-51l2-41h38l2 1 1 9 1 2 14-9z" fill="#5612E5"/>
<path transform="translate(1054,200)" d="m0 0h13l16 3 14 7 10 8 9 12 4 6 6 7 5 12v16l-4 7-3 3-2 4 1 5 1 3v9l-6 10-9 8-8 5-15 5-14 1-18-2-14-7-8-7-11-8-7-7-8-14-4-15v-19l4-17 7-13 8-9 13-8 13-4zm17 79-9 3-1 4 6-1 6-5z" fill="#540FE5"/>
<path transform="translate(863,202)" d="m0 0h41l6 13v2l4 2 6 8 11 33 1 1 15-50 4-9h40l-1 9-1 2 4 2 5 5 1 4v9l-6 18-13 35-10 28-5 9-6 5-6 2h-26l-10-3-7-6-8-3-10-25-26-78-3-10z" fill="#530EE3"/>
<path transform="translate(1289,173)" d="m0 0h36l3 3 5 10 6 6 3 7 8 6 4 9 5 4 3 6v10l-3 7-7 6-6 4-3 6-1 4v19l5 5 4 5 4 8 5 6 2 8-1 9-5 6-5 2h-15l-11-3-8-4-10-9-9-7-6-10-3-9-2-21-2-30-9-1-2-4v-28l1-1 11-1 1-2 1-22z" fill="#5511E4"/>
<path transform="translate(627,97)" d="m0 0 5 5 7 8 3 12 1 10v69l-1 233-2 12-6 11-8 7-9 4-16 2-353-1-11-3-16-12 2-1 9 4 8 1h343l21-1 12-6 8-9 5-11 1-5 1-206 2-15 2-11 1-17v-33l-1-19-3-14-5-12z" fill="#DED9DA"/>
<path transform="translate(417,237)" d="m0 0 4 3 11 23 6 11 3 2 35 5 5 1-1 4-28 28v8l4 22 1 6v8l-6-2-32-16-5 1-32 16h-4l2-18 4-22-4-7-8-8-8-7-9-9v-4l25-4 16-3 4-5 16-32z" fill="#FDC67F"/>
<path transform="translate(404,189)" d="m0 0h6l7 3h18l7-2h6l16 4 7 2 112 1 30 1 1 1v5h-105l-37-1-17-5-9-1-11 3h-9l-11-3h-10l-15 6-8 1-134 1-10 3-3 5-1 4-1 14v152l1 20 1 5-6-1-7-6-1-3v-198l5 3 6-2 10-3 20-1 124-1 11-4z" fill="#DED7D8"/>
<path transform="translate(611,421)" d="m0 0h3v7l-3 8-3 3-2-1h-318l-39 1-8 1 96 1v1h-101l-7-2v-3l7-4 4-5 4-2 350-1 12-2z" fill="#DDDEDE"/>
<path transform="translate(1688,227)" d="m0 0 3 3 6 8 6 9 4 11 1 5v22l-6 16-7 11-9 9-14 7-9 2h-14l-14-3h-9l-3 7-2 36-3 9-6 5-12 2-10-2-11-7-8-4 1-2 10 3 9 1 3 3 3 1h10l5-4 2-5 1-8 1-28 2-9 4-6 6-3 10 3 12 4h11l12-3 9-5 6-5 7-11 4-13 1-9v-15l-3-13-1-5-2-1-1-7-2-1-3-6z" fill="#DED6D6"/>
<path transform="translate(1830,227)" d="m0 0 5 5 7 10 4 10 2 14v13l-3 16-4 10-9 12-7 6-8 4-6 2-7 1h-10l-23-4-3 3-2 6-2 33-2 10-4 5-5 2h-16l-9-4-8-5-6-3 3-1 14 3 9 4h10l5-3 2-6 2-33 2-12 3-5 3-2 9-1 7 3 10 3h11l12-3 11-7 6-8 5-10 3-15v-17l-2-13-3-7-2-4-4-10z" fill="#DED5D5"/>
<path transform="translate(1112,226)" d="m0 0 4 4 4 6 6 7 5 12v16l-4 7-3 3-2 4 1 5 1 3v9l-6 10-9 8-8 5-15 5-14 1-18-2-14-7-8-7-6-4 2-1 12 6 18 6 5 1h19l12-3 11-6 7-7 2-4-1-7h-2l2-6 5-12h-38l-9 2-9 3-1 3 8-2-1 2-7 2-7-1-1-3 3-3 2-7 5-3 3-1 19 2 9 3h25l3-4 1-3v-14l-6-18-5-8z" fill="#DED6D6"/>
<path transform="translate(495,276)" d="m0 0 4 5 6 7 2 5v7l-3 8-11 12-6 8-3 5-1 4 1 17v13l-3 9-7 6-9 2-9-2-18-8-4-1h-8l-14 5-10 5-10 1-9-3-9-7-4-4 12 3 5 2h13l22-9h10l24 9 11 1 6-3 4-7v-14l-1-7v-9l4-11 16-20 3-6v-7l-3-6z" fill="#DFD2D3"/>
<path transform="translate(274,49)" d="m0 0h6l5 5 2 13v40l-2 5-4 4-5 1-7-3-3-4v-28l-1-23 2-5 4-2zm10 19-3 9 1 6 4-2v-13z" fill="#ddd"/>
<path transform="translate(417,49)" d="m0 0 6 2 3 4 2 3v50l-2 5-3 3-6 1-7-3-2-4v-39l-1-13 4-5 4-1-1-2z" fill="#DDDEDE"/>
<path transform="translate(988,213)" d="m0 0 4 1 5 4 2 6v9l-6 18-13 35-10 28-5 9-6 5-6 2h-26l-10-3-7-6-8-3 1-3 3 2 13 3 10 3h23l6-3 5-7 26-74 1-4v-12l-3-3z" fill="#DFD4D4"/>
<path transform="translate(1327,176)" d="m0 0 8 12 4 4 3 7 8 6 4 9 5 4 3 6v10l-3 7-7 6-6 4-3 6-1 4v19l5 5 4 5 4 8 5 6 2 8-1 9-5 6-5 2h-15l-11-3-8-4-10-9 2-1 16 7 10 3h12l5-3 2-4v-7l-1-5h-2l-3-10-2-4-8-4-2-10v-17l3-9 7-8 6-4 3-5v-9h-2l-2-8-5-9-5-4-8-4v-4l-2-5h-2l-2-9z" fill="#DFD4D5"/>
<path transform="translate(987,220)" d="m0 0 4 3v12l-9 27-15 43-4 10-6 7-5 2h-23l-10-3-2-2 29-1 7-1 3-11 21-61 9-24z" fill="#020102"/>
<path transform="translate(1509,189)" d="m0 0 1 2 4 2 4 5 4 8 10 28 6 17 9 25 9 23 4 17-1 8-4 4-10 2-16-2-10-7-6-4v-3l4 3 12 3 5 3h13l5-1v-5h2l-1-6-4-13-11-30-14-38-12-32-3-6z" fill="#DED9D9"/>
<path transform="translate(556,49)" d="m0 0h7l5 5 2 17v38l-2 5-6 4-6-2-2-7-5-28-1-11v-12l4-7 4-1zm-4 3m15 15-3 4-2 10v29l2 4 4-2 1-9v-29l-1-7z" fill="#DED7D8"/>
<path transform="translate(1192,234)" d="m0 0h12l8 5 1 4h-12l-9 6-4 6-2 9-1 17-1 31-2 8-3 3-5 2h-9l-10-5v-1l15-1 6-2 1-3 1-65 4-8 5-4z" fill="#020102"/>
<path transform="translate(1213,241)" d="m0 0 3 4 1 8-3-4h-7l-7 3-6 7-2 5-1 9-1 35-2 14-5 6-5 2h-17l-15-10-6-3-2-3v-7h1l2 8 5 2 9 2 10 5h9l7-2 2-10 1-31 1-17 2-9 6-8 8-5h11z" fill="#DED4D4"/>
<path transform="translate(1255,226)" d="m0 0 5 4 6 9 3 11 1 12v37l-1 17-2 7-6 5-9 2-12-1-6-3-9-6-6-3 1-2 3 2 13 2 4 3 3 1h13l5-5 2-9v-45l-2-17-2-11h-2z" fill="#DED6D6"/>
<path transform="translate(1836,242)" d="m0 0 2 2 3 9 1 10v17l-3 15-6 12-7 8-10 6-12 3h-11l-16-5v-1h20l11-4 11-7 7-9 6-12 4-16z" fill="#020102"/>
<path transform="translate(1695,244)" d="m0 0 2 3 3 9 1 6v15l-2 13-4 11-8 11-8 6-12 5-6 1h-11l-14-5 3-1h16l11-4 9-6 8-8 8-15 4-15 1-14z" fill="#020102"/>
<path transform="translate(849,287)" d="m0 0 2 2 2 9 6 5 2 5 1 9-2 7-5 4-8 2h-63l-8-2-8-7-10-3 1-3v2l15 1 3 3 7 2h64l6-4v-8l-2-4h-1z" fill="#DFD4D4"/>
<path transform="translate(1475,299)" d="m0 0h23l7 1 3 1 4 10-1 3-4-6-1-1-15-1-17 1-7 2-5 4-6 10-8 5-7 2h-10l-8-3-4-5-5-2-10-1v-1h18l6 2 4 2h10l8-5 11-13 8-4z" fill="#DFD3D4"/>
<path transform="translate(1609,304)" d="m0 0 6 2 7 6 6 4-3 2-5 5-2 5-1 6-1 28-2 11-5 6-2 1h-10l-6-3v-1l16-4 1-1 1-7z" fill="#020102"/>
<path transform="translate(1457,293)" d="m0 0h40l7 1 3 5-1 3-1-1-7-1h-23l-9 2-8 6-9 11-7 4h-10l-5-3v-1l14-3 2-1 8-20z" fill="#020102"/>
<path transform="translate(1752,305)" d="m0 0 5 1 9 7 8 4v1l-9 2-3 5-2 12-2 33-3 7-5 3h-10l-9-4v-1l16-1 5-1z" fill="#020102"/>
<path transform="translate(851,189)" d="m0 0 3 3 2 11-4 5-11 2-22 1-8 3-3 1-3 9-1 4h-6l-1-1v-24l54-1z" fill="#020102"/>
<path transform="translate(1121,248)" d="m0 0 2 2 1 4v14l-3 6-2 2h-25l-9-3-21-2-3 3h-3l-1 7-3 4-2 1-7-6-3-8 1-4h42l35-1 1-4z" fill="#020102"/>
<path transform="translate(850,174)" d="m0 0h1l3 12 5 3 4 8 2 5h-2l1 6-2-1-4 5-7 3-6 1-25 2-8 4-3 5h6v1h-11l1-8 3-5 7-4 4-1 22-1 11-2 3-4-2-11-2-3z" fill="#DED5D6"/>
<path transform="translate(845,249)" d="m0 0h2l2 5-1 7-5 3-21 2-9 3-5 5-2 4-1 8h-7l-1-5v-22l48-1z" fill="#020102"/>
<path transform="translate(1257,236)" d="m0 0h2l4 16 1 12v45l-2 9-4 5-2 1h-13l-6-3-1-2 15-1 5-2 1-7z" fill="#020102"/>
<path transform="translate(1766,236)" d="m0 0h15l7 4 4 4-1 2-2-2h-9l-10 5h-2l-2 4-4 7-2 5v10l4 7-4-2-4-5-4-11v-9l3-9 7-8z" fill="#020102"/>
<path transform="translate(1628,235)" d="m0 0h7l10 4 4 4-1 2-1-1h-10l-10 5-6 7-3 7-1 10 2 7-5-4-5-13v-7l4-11 5-6 5-3z" fill="#020102"/>
<path transform="translate(1354,221)" d="m0 0 2 2v9l-5 7-8 6-5 8-1 5v17l2 9-4-1-3-2-2-7-1-29 1-9 19-5 3-5z" fill="#020102"/>
<path transform="translate(844,237)" d="m0 0 2 3v2l5 2 4 7v11l-6 7-5 2-22 2-8 3-3 5-1 4h6v1h-11v-8l4-7 5-4 8-2 21-2 4-2 1-7-1-5h-2z" fill="#DED5D6"/>
<path transform="translate(1112,295)" d="m0 0 3 3-1 7-7 8-9 6-10 4-6 1h-19l-18-5-2-2 11 1h19l13-4 11-6 9-7 4-5z" fill="#020102"/>
<path transform="translate(1477,219)" d="m0 0h2l4 9 2 10-5 5-5 13-3 7-9 1 1-9 11-34z" fill="#020102"/>
<path transform="translate(852,306)" d="m0 0 2 2 1 3v8l-5 4-2 1h-64l-8-3-1-2 48-1 28-1v-10z" fill="#020102"/>
<path transform="translate(1637,243)" d="m0 0h10l5 4 2 5v14h-1l-1-11-3-5-10 1-8 4-5 7-2 7v13l14 2-4 2-9-1-5-3-4-9 1-10 5-10 8-7z" fill="#DED6D6"/>
<path transform="translate(1780,243)" d="m0 0h9l5 4 2 5v15h-1l-2-15-1-2h-7l-8 3-6 5-4 9-1 10v5l5 1h12l-2 2-10 1-7-3-5-8v-10l4-9 5-7z" fill="#DFD5D6"/>
<path transform="translate(1056,232)" d="m0 0h9l6 3 6 5 1 5-5-2v1l-13 2-3 3h-12l-2-5 4-6 6-5z" fill="#020102"/>
<path transform="translate(908,213)" d="m0 0 2 4 4 2 6 8 12 36-2 9-2 3-6-20-10-30-4-9z" fill="#DDDADA"/>
<path transform="translate(1064,270)" d="m0 0 21 2 9 3 23 1-1 2h-36l-9 2-9 3-1 3 8-2-1 2-7 2-7-1-1-3 3-3 2-7 5-3z" fill="#E0CCCD"/>
<path transform="translate(441,48)" d="m0 0 5 5 6 7 5 15v2h8v1h-21l-1-1-1-23z" fill="#DED8D9"/>
<path transform="translate(1483,238)" d="m0 0h3l8 22-1 4h-25l4-2 6-17zm3 9-5 13v2h12l-5-15z" fill="#DFD3D4"/>
<path transform="translate(285,83)" d="m0 0h1v28l-5 5-5 1-7-3-3-4v-24h4v13l3 10 2 3h5l3-7 1-18z" fill="#FAF9F9"/>
<path transform="translate(301,51)" d="m0 0 7 6 7 14 2 6 4 1h-17l-2-22z" fill="#ddd"/>
<path transform="translate(585,53)" d="m0 0 5 3 6 10 3 9 4 3-16-1-1-4z" fill="#DDDBDC"/>
<path transform="translate(1352,303)" d="m0 0 2 2 1 3v7l-3 5-5 3h-12l-15-5 4-1 6 1h15l5-3z" fill="#020102"/>
<path transform="translate(436,235)" d="m0 0 5 5v2l3 1 7 11 4 5 8 3 16 3v1h-10l-17-5-5-5-6-10-5-9z" fill="#DFD4D4"/>
<path transform="translate(1541,318)" d="m0 0h12l-1 4-5 2h-13l-7-4v-1z" fill="#020102"/>
<path transform="translate(631,403)" d="m0 0 2 4 2 15v9l-3 8-2-2-1-6 1-5z" fill="#F2757D"/>
<path transform="translate(1072,242)" d="m0 0 4 1 3 1v4l-2 1h-20l1-3 6-2 8-1z" fill="#DFD3D4"/>
<path transform="translate(221,200)" d="m0 0 5 3 6-2 5-1-4 3-6 4-6 3z" fill="#F2757D"/>
<path transform="translate(244,426)" d="m0 0h8v1l-9 2-5 5-2-1 4-5z" fill="#F2757D"/>
</svg>
